Coordinates
version=1
nRows=38
nColumns=12
inDegrees=yes

Units are S.I. units (second, meters, Newtons, ...)
Angles are in degrees

endheader
time	SC_y	SC_z	SC_x	AC_y	AC_z	AC_x	GH_y	GH_z	GH_yy	EL_x	PS_y
       0.0              -56.83          12.93          19.09          69.76          4.509         -5.959         -48.83          65.45          160.2          119.7          107.5
   0.04244              -56.82          12.92           19.1          69.76          4.505         -5.959         -48.85          65.45          160.2          119.7          107.5
   0.08487              -56.82          12.92          19.11          69.76          4.502         -5.959         -48.87          65.45          160.2          119.7          107.5
    0.1273              -56.81          12.92          19.11          69.76          4.498         -5.959         -48.89          65.46          160.1          119.7          107.5
    0.1697              -56.81          12.92          19.12          69.75          4.494         -5.959         -48.91          65.46          160.1          119.6          107.5
    0.2122               -56.8          12.92          19.13          69.75           4.49         -5.959         -48.93          65.46          160.1          119.6          107.5
    0.2546              -56.79          12.92          19.14          69.75          4.485         -5.959         -48.96          65.46          160.1          119.6          107.5
     0.297              -56.79          12.91          19.14          69.75           4.48         -5.959         -48.98          65.46          160.1          119.6          107.4
    0.3395              -56.78          12.91          19.15          69.75          4.475         -5.959         -49.01          65.46          160.0          119.6          107.4
    0.3819              -56.77          12.91          19.16          69.75          4.469         -5.959         -49.04          65.46          160.0          119.6          107.4
    0.4244              -56.76          12.91          19.17          69.74          4.463         -5.959         -49.08          65.47          160.0          119.6          107.4
    0.4668              -56.75           12.9          19.19          69.74          4.456         -5.959         -49.11          65.47          159.9          119.6          107.4
    0.5092              -56.74           12.9           19.2          69.74          4.449         -5.959         -49.15          65.47          159.9          119.5          107.4
    0.5517              -56.73           12.9          19.21          69.74          4.442         -5.958         -49.19          65.47          159.9          119.5          107.3
    0.5941              -56.72          12.89          19.22          69.73          4.434         -5.958         -49.24          65.47          159.8          119.5          107.3
    0.6365              -56.71          12.89          19.24          69.73          4.425         -5.958         -49.29          65.48          159.8          119.5          107.3
     0.679              -56.69          12.88          19.26          69.73          4.415         -5.958         -49.34          65.48          159.7          119.5          107.3
    0.7214              -56.68          12.88          19.28          69.72          4.404         -5.958          -49.4          65.48          159.7          119.4          107.2
    0.7638              -56.66          12.87           19.3          69.72          4.393         -5.958         -49.46          65.49          159.6          119.4          107.2
    0.8063              -56.64          12.87          19.32          69.71           4.38         -5.958         -49.53          65.49          159.6          119.4          107.2
    0.8487              -56.62          12.86          19.34          69.71          4.366         -5.957         -49.61          65.49          159.5          119.3          107.1
    0.8911               -56.6          12.85          19.37           69.7          4.351         -5.957         -49.69           65.5          159.4          119.3          107.1
    0.9336              -56.57          12.85           19.4           69.7          4.334         -5.957         -49.78           65.5          159.4          119.3          107.0
     0.976              -56.55          12.84          19.43          69.69          4.315         -5.957         -49.89          65.51          159.3          119.2          107.0
     1.018              -56.52          12.83          19.47          69.68          4.294         -5.956          -50.0          65.52          159.2          119.2          106.9
     1.061              -56.48          12.82          19.51          69.67          4.271         -5.956         -50.13          65.52          159.1          119.1          106.9
     1.103              -56.45          12.81          19.55          69.66          4.245         -5.956         -50.27          65.53          158.9          119.0          106.8
     1.146               -56.4          12.79           19.6          69.65          4.216         -5.955         -50.43          65.54          158.8          119.0          106.7
     1.188              -56.36          12.78          19.66          69.64          4.182         -5.955         -50.61          65.55          158.6          118.9          106.6
     1.231               -56.3          12.76          19.72          69.62          4.145         -5.954         -50.82          65.56          158.4          118.8          106.5
     1.273              -56.24          12.74           19.8          69.61          4.102         -5.954         -51.05          65.57          158.2          118.7          106.4
     1.315              -56.17          12.72          19.88          69.59          4.053         -5.953         -51.32          65.59          158.0          118.6          106.3
     1.358              -56.09          12.69          19.98          69.57          3.996         -5.952         -51.63           65.6          157.7          118.4          106.1
       1.4              -55.99          12.66           20.1          69.54           3.93         -5.951          -52.0          65.62          157.4          118.3          106.0
     1.443              -55.88          12.63          20.23          69.52          3.852          -5.95         -52.42          65.65          157.0          118.1          105.7
     1.485              -55.75          12.58          20.39          69.48          3.761         -5.949         -52.92          65.67          156.6          117.9          105.5
     1.528              -55.59          12.54          20.57          69.44          3.653         -5.948         -53.51           65.7          156.1          117.6          105.2
      1.57               -55.4          12.48           20.8          69.39          3.523         -5.946         -54.22          65.74          155.4          117.3          104.9
